<?xml version="1.0" encoding="utf-8"?>
<!-- Generator: Adobe Illustrator 19.0.0, SVG Export Plug-In . SVG Version: 6.00 Build 0)  -->
<svg version="1.1" id="Layer_1" xmlns="http://www.w3.org/2000/svg" xmlns:xlink="http://www.w3.org/1999/xlink" x="0px" y="0px"
	 viewBox="0 0 375.6 47.6" style="enable-background:new 0 0 375.6 47.6;" xml:space="preserve">
<style type="text/css">
	.st0{fill:#FFFFFF;}
</style>
<g id="XMLID_1_">
	<path id="XMLID_35_" class="st0" d="M48.9,13.4c1.6-1.6,2.3-3.4,2.3-5.2c0-1.8-0.7-3.4-2-4.8c-1.3-1.3-3-2.2-5.1-2.7
		c-2.1-0.5-4.4-0.7-7.1-0.7C34.4,0.1,31,0.4,27,1c-7.1,1.2-12.2,2.7-15.5,4.4C8.3,7.2,5.6,9.1,3.5,11C1.3,13,0.2,15,0,17l0.1,1.1
		c0,0.2-0.1,0.5-0.1,0.7c0,1.6,0.8,3,2.4,4.3s3.2,1.9,4.7,2c0.6,0.1,0.9,0,1-0.2c0.1-0.2,0-0.4-0.4-0.6c-0.4-0.2-0.9-0.4-1.8-0.7
		c-0.8-0.3-1.5-0.6-2-0.9c-0.5-0.3-0.9-0.7-1.3-1.3c-0.4-0.6-0.6-1.2-0.6-1.8c0-2.9,1.9-5.6,5.7-8.1c3.5-2.3,7.5-4.1,12.1-5.3
		c7.5-2.1,14.2-3.1,19.8-3.1c4.2,0,6.9,0.7,8.2,2.1c0.8,0.8,1.1,1.6,1.1,2.4c0,0.1,0,0.2,0,0.4c-0.4,3-3.6,5.7-9.6,8.1
		c-4.1,1.7-7.3,2.5-9.6,2.5c-0.6,0-1.3,0.3-2,0.8c-0.7,0.5-1.1,1.1-1,1.9c0.1,0.8,1.7,2.5,4.9,5.2c1.5,1.3,2.6,2.4,3.4,3.2
		c2.4,2.8,3.6,5.5,3.6,8.1s-1.3,4.7-3.9,6.4c-2.3,1.5-5.2,2.3-8.5,2.3c-0.1,0-0.2,0-0.3,0c-4.1,0-6.5-1.7-7.2-5.1
		c0-0.1-0.1-0.5-0.1-0.9c0-0.5-0.1-0.8-0.2-1.1c-0.1-0.3-0.3-0.5-0.5-0.8c-0.3-0.2-0.6-0.4-1-0.4c-0.4,0-1.2,0.6-2.2,1.9
		c-1.1,1.3-1.9,2-2.5,2c-0.6,0-0.9-0.4-0.9-1.1c0-0.5,0.2-1.3,0.6-2.2c1.8-4.3,4.7-9.8,8.7-16.5c2-3.3,4-6.1,6.1-8.3
		c2.1-2.3,3.9-3.4,5.5-3.4c0,0,0.2,0,0.4,0.1c0.2,0.1,0.4,0.1,0.4,0c0-0.1,0-0.3,0-0.6c-0.2-0.8-0.8-1.4-1.7-1.8
		c-1-0.4-1.7-0.6-2.3-0.6c-1.7,0-3.6,1.1-5.8,3.3c-2.1,2.2-3.3,3.9-3.5,5.3c0,0.2,0.1,0.6,0.1,1s-0.2,1.1-0.6,1.9
		c-2.2,4-4.4,8.2-6.7,12.5c-1.1,2.3-2.2,4.6-3.1,7c-0.9,2.4-1.4,3.9-1.4,4.5c0,0.6,0,1,0,1.2c0,0.2,0.4,0.4,1.1,0.5
		c0.7,0.2,1.3,0.3,1.6,0.3c1.2,0,2.7-1.5,4.5-4.4c0,0.2,0,0.3,0.1,0.4c0.6,4.3,3.9,6.4,10,6.4c2.9,0,5.6-0.5,8.1-1.6
		c2.6-1.1,4.5-2.5,6-4.2c2.1-2.6,3.2-5.3,3.2-8.1c0-0.9-0.2-1.8-0.6-2.9c-0.4-1.1-1.4-2.4-2.9-3.9c-1.5-1.5-3-2.8-4.3-3.7
		c-1.3-0.9-3-2-5.1-3.3c4.2-0.2,8.5-1.1,13-2.8C45.4,16.3,47.4,15,48.9,13.4z"/>
	<path id="XMLID_36_" class="st0" d="M80.8,18.8c0.3,0,0.8-0.5,1.4-1.4c0.6-1,0.9-1.6,0.9-2.1l0.6-2.3c0-0.2-0.1-0.3-0.3-0.3
		c-0.2,0-0.7,0.3-1.4,1l-1.2,0.9c-2.1,1.6-3.1,2.5-3.1,2.6C77.7,18.3,78.7,18.8,80.8,18.8z"/>
	<path id="XMLID_37_" class="st0" d="M130.6,14.7c-2.1,1.6-3.1,2.5-3.1,2.6c0,1,1,1.5,3.1,1.5c0.3,0,0.8-0.5,1.4-1.4
		c0.6-1,0.9-1.6,0.9-2.1l0.6-2.3c0-0.2-0.1-0.3-0.3-0.3c-0.2,0-0.7,0.3-1.4,1L130.6,14.7z"/>
	<path id="XMLID_40_" class="st0" d="M217.4,21.8c-0.8,0-3,0.2-6.7,0.5l-0.9,0.1l3.4-6c0.1-0.3,0.4-0.5,0.8-0.8
		c0.4-0.2,0.7-0.6,1.1-1.2c0.3-0.5,0.5-1,0.5-1.5c0-0.5-0.1-0.8-0.2-1c-0.3-0.5-1-0.8-1.9-0.8c-0.9,0-1.5,0.1-1.7,0.4
		c-0.1,0.1-0.2,0.2-0.3,0.3c-0.1,0.1-0.2,0.3-0.4,0.5c-0.1,0.2-0.3,0.5-0.4,0.7c-0.1,0.2-0.3,0.5-0.5,0.9c-0.2,0.4-0.5,0.8-0.6,1.2
		l-3.6,6.7c-0.1,0-0.2,0-0.3,0.1c-2.2,0.1-3.5,0.5-3.8,1.3c-0.2,0.4-0.2,0.8,0.1,1.1c0.2,0.3,0.6,0.5,1.1,0.5s1,0,1.5-0.1
		c-1.1,2-1.6,3-1.6,3c-1.3,2-3.2,4.5-5.5,7.4c-0.8,0.8-1.7,1.7-2.6,2.6c-2.2,2-4,3.3-5.2,4c-1.2,0.7-2.2,0.7-2.9-0.1
		c-0.4-0.4-0.6-1.3-0.6-2.6c0-1.3,0.5-3.1,1.4-5.3c0.5-1.3,1.3-3,2.4-5c1.1-2.1,1.6-3.7,1.6-4.8c0-1.2-0.5-1.8-1.6-1.8
		c-1.1,0-2.6,0.6-4.4,1.9c-1.8,1.4-4,3.5-6.7,6.3c-2.6,2.7-4.8,5.2-6.5,7.3c2.5-6.6,4-10.4,4.5-11.6c0.5-1.1,0.8-1.8,0.8-2.2
		c0-0.5-0.3-0.8-1-0.9c-0.7-0.1-1.2-0.2-1.6-0.1c-0.4,0-0.8,0.2-1,0.6c-0.3,0.4-0.4,0.7-0.5,1c-0.1,0.3-0.2,0.6-0.3,1
		c-0.1,0.4-0.2,0.9-0.4,1.5c-0.2,0.6-0.8,2.2-1.8,4.9c0,0,0,0-0.1,0.1c-1.3,1.9-3.1,3.9-5.3,5.9c-2.2,2-4,3.3-5.2,4
		c-1.2,0.7-2.2,0.6-2.9-0.1c-0.4-0.4-0.6-1-0.6-1.6c0-0.7,0-1.2,0.1-1.6c0.4-3.5,1.9-6.9,4.3-10.4c0.3-0.5,0-0.9-0.8-1.2
		c-0.8-0.3-1.5-0.5-2.1-0.5c-0.3,0-2.7,2.4-7.1,7.1c-1.2,1.3-3.6,3.4-6.9,6.3c-2.1,1.6-3.6,2.4-4.6,2.4s-1.5-0.9-1.5-2.6
		c0-0.9,0.6-2.4,1.9-4.3c1.3-2,2.7-3.8,4.4-5.3c2-1.8,4.1-3.2,6.4-4.4c2.3-1.2,4.3-1.8,6.1-1.8c1.8,0,3,0.5,3.5,1.4
		c0.2,0.1,0.3,0.1,0.4,0.1c0,0,0.1-0.2,0.1-0.4c0-0.7-0.5-1.4-1.4-2c-0.9-0.6-2-1-3.3-1c-1.3,0-2.6,0.2-3.9,0.5
		c-1.3,0.3-3.2,1.2-5.4,2.5c-2.3,1.3-4.5,2.9-6.6,4.8c-1.6,1.5-2.9,3-3.9,4.5c-1.1,1.3-2.3,2.6-3.8,3.9c-2.2,2-4,3.3-5.2,4
		c-1.2,0.7-2.2,0.6-2.9-0.1c-0.4-0.4-0.6-1-0.6-1.6c0-0.7,0-1.2,0.1-1.6c0.1-1.5,1.6-4.9,4.3-10.4c0.2-0.4,0.5-0.9,0.7-1.4
		c0-0.1,0.1-0.3,0.2-0.6c0.1-0.2,0.3-0.6,0.5-1c0.2-0.4,0.3-0.8,0.2-1.3c-0.2-0.8-1-1.1-2.1-1.1c-0.2,0-0.4,0-0.5,0
		c-0.7,0.1-1.6,1.6-2.5,4.2c-0.2,0.4-0.2,0.7-0.1,0.9c-1.3,2-3.2,4.5-5.5,7.4c-0.7,0.7-1.4,1.5-2.3,2.3c-2.2,2-4,3.4-5.4,4.2
		c-1.9,1.1-3.3,1-4.1-0.3c-0.5-0.8-0.7-1.6-0.7-2.5s0-1.7,0.1-2.2c0-0.5,0.4-1.6,0.9-3.3c10.6-8.8,18.4-17.5,23.3-26.1
		c0.7-1.5,1.1-2.6,1.1-3.4c0-0.8-0.1-1.4-0.4-1.9C131,0.6,129.6,0,127.6,0c-2,0-4,0.9-5.9,2.7c-1,0.9-1.8,1.7-2.3,2.3l-2.2,2.8
		c-2.6,3.4-5.5,8.5-8.7,15.3c-1.7,3.6-3,6.8-3.8,9.4c-1.1,1.5-2.6,3.1-4.5,4.8c-2.2,2-4,3.4-5.4,4.2c-1.9,1.1-3.3,1-4.1-0.3
		c-0.5-0.8-0.7-1.6-0.7-2.5s0-1.7,0.1-2.2c0-0.5,0.4-1.6,0.9-3.3c10.6-8.8,18.4-17.5,23.3-26.1c0.7-1.5,1.1-2.6,1.1-3.4
		c0-0.8-0.1-1.4-0.4-1.9c-0.7-1.2-2.1-1.9-4.1-1.9c-2,0-4,0.9-5.9,2.7c-1,0.9-1.8,1.7-2.3,2.3l-2.2,2.8c-2.6,3.4-5.5,8.5-8.7,15.3
		c-1.7,3.6-2.9,6.6-3.8,9.3c-1.3,1.7-3,3.5-5,5.3c-2.2,2-4,3.3-5.2,4c-1.2,0.7-2.2,0.6-2.9-0.1c-0.4-0.4-0.6-1-0.6-1.6
		c0-0.7,0-1.2,0.1-1.6c0.1-1.5,1.6-4.9,4.3-10.4c0.2-0.4,0.5-0.9,0.7-1.4c0-0.1,0.1-0.3,0.2-0.6c0.1-0.2,0.3-0.6,0.5-1
		c0.2-0.4,0.3-0.8,0.2-1.3c-0.2-0.8-1-1.1-2.1-1.1c-0.2,0-0.4,0-0.5,0c-0.7,0.1-1.6,1.6-2.5,4.2c-0.2,0.4-0.2,0.7-0.1,0.9
		c-1.3,1.9-3,4.3-5.2,7c-0.9,1-1.9,1.9-2.9,2.9c-2.2,2-3.8,3.2-4.7,3.8c-0.9,0.5-1.6,0.8-1.9,0.8c-1,0-1.5-0.7-1.5-2.1
		c0-0.7,0.2-1.5,0.5-2.4c1.4-3.8,3.6-7.3,6.4-10.7c1.3-1.5,2.2-2.7,2.5-3.7c0.2-0.5,0.1-0.9-0.3-1.1c-0.4-0.2-1-0.3-1.8-0.3
		l-2.5,0.1c-1.5,0-3.4-0.1-5.5-0.2l2.8-4.4c1-1.7,1.1-2.6,0.6-2.6c-0.3,0-0.5,0-0.8,0.1c-0.2,0.1-0.8,0.4-1.7,0.8
		c-0.9,0.4-2,1.3-3.2,2.5c-1.2,1.2-1.9,2.2-2.2,3c-0.2,0.7-0.2,1.3,0.1,1.6c0.3,0.3,0.7,0.5,1.3,0.6c-1.9,3.6-4.1,6.9-6.7,10.1
		c-0.3,0.4-0.4,0.7-0.4,0.9c0,0.2,0.1,0.4,0.4,0.5c0.2,0.1,0.7-0.2,1.4-1.1c0.7-0.9,3.2-4.3,7.4-10.4c0.9,0,2,0.1,3.4,0.4
		c1.4,0.3,2.2,0.7,2.4,1.3l0.2,0.6c0,0.2-0.3,0.8-0.9,1.7l-0.5,0.7c-0.1,0.2-0.4,0.5-0.7,0.8c-4.2,4.3-6.3,7.9-6.3,10.8
		c0,2.9,1.2,4.4,3.7,4.4c2,0,3.9-0.7,5.6-2c1.8-1.2,3.6-2.9,5.4-4.9c0.8-0.8,1.4-1.6,2-2.3c1.1-1.3,1.7-2.1,1.9-2.5
		c-1.5,3.4-2.3,5.9-2.3,7.6c0,0.5,0,0.9,0.1,1.2c0.6,1.8,1.9,2.7,3.8,2.7c0.8,0,1.8-0.2,3-0.6c2.1-0.8,4.6-2.8,7.7-6.1
		c0.7-0.7,1.2-1.4,1.7-2c-0.2,1.1-0.4,2.1-0.4,2.9c0,0.1,0,0.3,0,0.4c0,3.5,1.8,5.3,5.4,5.3c1.6,0,3.2-0.6,4.7-1.8
		c1.6-1.2,3.3-2.8,5.3-4.8c0.7-0.7,1.3-1.4,1.8-2c-0.2,1-0.4,1.9-0.4,2.8c0,0.1,0,0.3,0,0.4c0,3.5,1.8,5.3,5.4,5.3
		c1.6,0,3.2-0.6,4.7-1.8c1.6-1.2,3.3-2.8,5.3-4.8c1.7-1.8,2.9-3.2,3.7-4.5c0.1-0.2,0.2-0.4,0.3-0.5c0,0,0,0,0,0
		c-1.5,3.4-2.3,5.9-2.3,7.6c0,0.5,0,0.9,0.1,1.2c0.6,1.8,1.9,2.7,3.8,2.7c0.8,0,1.8-0.2,3-0.6c2.1-0.8,4.6-2.8,7.7-6.1c0,0,0,0,0,0
		c0,0.2,0,0.4,0,0.6c0,1,0.3,1.9,0.9,2.7c0.6,0.8,1.4,1.5,2.3,1.9c0.9,0.5,1.7,0.7,2.5,0.7c1.7,0,3.5-0.8,5.6-2.5
		c2.1-1.7,3.9-3.4,5.5-5.2s2.5-2.8,2.6-2.9c-0.9,2.4-1.4,4.7-1.4,6.8c0,0.7,0.1,1.4,0.2,1.9c0.6,1.8,1.8,2.7,3.7,2.7
		c1.9,0,4-0.8,6.2-2.5c1.2-0.9,2.9-2.5,5.2-4.9c0.5-0.5,0.9-0.9,1.2-1.3c-0.5,1.5-1,2.9-1.5,4.2c-0.8,2.3-1.3,3.6-1.4,3.9
		c-0.1,0.3-0.1,0.5-0.1,0.6c0,0.1,0.2,0.2,0.6,0.2s1.5-0.4,3.2-1.3c0.4-0.2,2-2.3,4.9-6.1c2.9-3.8,5.1-6.5,6.6-7.8
		c2.1-1.9,3.6-2.8,4.4-2.8c0.4,0,0.6,0.2,0.6,0.5c0,0.4-0.3,1.1-1,2.3c-0.6,1.1-1.4,2.7-2.3,4.8c-0.5,1.3-0.9,2.4-1.1,3.4
		c-0.2,1-0.3,2-0.3,3c0,1.1,0.3,1.9,1,2.6c0.7,0.7,1.8,1.1,3.4,1.1c1.7,0,3.4-0.6,5.1-1.8c1.7-1.2,3.5-2.8,5.4-4.8
		c1.4-1.5,2.5-2.8,3.2-3.9c0.3-0.4,0.5-0.7,0.6-0.9c-1.5,3.4-2.3,5.9-2.3,7.6c0,0.5,0,0.9,0.1,1.2c0.6,1.8,1.9,2.7,3.8,2.7
		c0.8,0,1.8-0.2,3-0.6c2.1-0.8,4.6-2.8,7.7-6.1c3.2-3.4,4.4-5.3,3.7-5.7c-0.3-0.1-0.5-0.1-0.7,0.1c-1.4,1.9-3.2,3.9-5.4,5.9
		s-4,3.3-5.2,4c-1.2,0.7-2.2,0.6-2.9-0.1c-0.4-0.4-0.6-1-0.6-1.6c0-0.7,0-1.2,0.1-1.6c0.1-1.5,1.6-4.9,4.3-10.4
		c0-0.2,0.4-0.9,1.1-2.1c0.3-0.6,0.6-1.1,0.9-1.5c4.3-0.5,7.1-0.9,8.2-1.2c1.1-0.3,1.7-0.6,1.7-0.9C218.5,22,218.1,21.8,217.4,21.8z
		 M115.1,17.1c3.6-6.4,7.3-11.1,11.1-14c1-0.8,1.8-1.1,2.5-1.1c0.8,0,1.2,0.5,1.2,1.5c0,0.6-0.3,1.4-0.9,2.4
		c-2.1,4-5.1,8.5-9.2,13.5c-4.1,5.1-7.8,8.7-11.1,11C110.1,26.7,112.2,22.3,115.1,17.1z M98.2,17.1c3.6-6.4,7.3-11.1,11.1-14
		c1-0.8,1.8-1.1,2.5-1.1c0.8,0,1.2,0.5,1.2,1.5c0,0.6-0.3,1.4-0.9,2.4c-2.1,4-5.1,8.5-9.2,13.5c-4.1,5.1-7.8,8.7-11.1,11
		C93.3,26.7,95.4,22.3,98.2,17.1z"/>
	<path id="XMLID_42_" class="st0" d="M244.1,40.1c-1,1.3-1.9,2-2.5,2c-0.6,0-0.9-0.3-0.9-0.9c0-0.6,0.5-2,1.4-4.2
		c0.9-2.1,2.3-4.9,4.2-8.4c8.7-0.2,16.3-1.7,22.8-4.4c2.7-1.1,5.2-2.8,7.4-4.9c2.2-2.1,3.3-4.6,3.3-7.3c0-1.8-0.7-3.6-2.1-5.4
		c-1.4-1.8-3.5-3.1-6.3-4.1c-4.1-1.1-8.3-1.7-12.5-1.7C252,0.8,246,2,241,4.3c-6.3,3.2-9.9,6.7-10.5,10.2c0,0.1,0,0.5,0.1,1.1
		c-0.1,0.4-0.1,0.9-0.1,1.3c0,1.4,0.6,2.8,1.9,4c1.3,1.2,2.7,2,4.2,2.2c0.5,0.1,0.8,0,0.9-0.2c0.1-0.2,0.1-0.4-0.2-0.6
		c-0.3-0.2-0.8-0.5-1.6-0.9c-0.8-0.4-1.4-0.7-1.8-1c-0.4-0.3-0.8-0.7-1.1-1.3c-0.3-0.5-0.5-1-0.5-1.4c0-0.4,0-0.7,0.1-0.9
		c0.4-2.2,1.6-4.2,3.7-6c2.1-1.8,4.6-3.2,7.6-4.2c5.7-1.9,11.6-2.9,17.9-2.9c10.9,0,16.4,2.7,16.4,8c0,1.8-0.8,3.5-2.5,5.2
		c-2.9,3-7.1,5.4-12.6,7.3c-5.5,1.8-10.8,2.9-16,3.1c6.3-11.2,11.2-16.8,14.7-16.8c0,0,0.2,0,0.4,0.1c0.2,0.1,0.4,0.1,0.5,0
		c0.1-0.1,0-0.4-0.1-0.9c-0.1-0.5-0.7-1-1.7-1.5c-1-0.4-1.8-0.6-2.3-0.6c-1.7,0-3.6,1.1-5.8,3.3c-2.1,2.2-3.3,3.9-3.5,5.3
		c0,0.2,0.1,0.6,0.1,1s-0.2,1.1-0.7,2.1c-0.5,1-1.9,3.7-4.4,8.1c-0.7,0-1.2,0-1.5-0.1c-0.3,0-0.6,0-0.8,0c-0.3,0-0.4,0.2-0.3,0.6
		c0.1,0.3,0.3,0.5,0.6,0.6c0.4,0,0.8,0.1,1.5,0.1c-4.1,7.7-6.1,12.8-6.1,15.3c0,0.1,0,0.3,0,0.5c0,0.2,0.4,0.4,1.1,0.5
		c0.7,0.2,1.3,0.3,1.8,0.3s0.9-0.2,1.5-0.7c0.3-0.2,0.5-0.5,0.8-0.7c0.2-0.2,0.5-0.5,0.8-0.9s0.5-0.7,0.7-0.9c0.2-0.2,0.4-0.6,0.6-1
		c0.2-0.4,0.4-0.7,0.5-0.8c0.9-1,1.2-1.6,0.9-1.9C245.9,38.2,245.2,38.8,244.1,40.1z"/>
	<path id="XMLID_45_" class="st0" d="M351.3,33.2c10.6-8.8,18.4-17.5,23.3-26.1c0.7-1.5,1.1-2.6,1.1-3.4c0-0.8-0.1-1.4-0.4-1.9
		c-0.7-1.2-2.1-1.9-4.1-1.9c-2,0-4,0.9-5.9,2.7c-1,0.9-1.8,1.7-2.3,2.3l-2.2,2.8c-2.6,3.4-5.5,8.5-8.7,15.3
		c-1.7,3.5-2.9,6.5-3.8,9.1c-1.3,1.8-2.9,3.6-5,5.4c-2.2,2-3.8,3.2-4.7,3.8s-1.6,0.8-1.9,0.8c-1,0-1.5-0.7-1.5-2.1
		c0-0.7,0.2-1.5,0.5-2.4c1.4-3.8,3.6-7.3,6.4-10.7c1.3-1.5,2.2-2.7,2.5-3.7c0.2-0.5,0.1-0.9-0.3-1.1c-0.4-0.2-1-0.3-1.8-0.3
		l-2.5,0.1c-1.5,0-3.4-0.1-5.5-0.2l2.8-4.4c1-1.7,1.1-2.6,0.6-2.6c-0.3,0-0.5,0-0.8,0.1c-0.2,0.1-0.8,0.4-1.7,0.8
		c-0.9,0.4-2,1.3-3.2,2.5c-1.2,1.2-1.9,2.2-2.2,3c-0.2,0.7-0.2,1.3,0.1,1.6c0.3,0.3,0.7,0.5,1.3,0.6c-1.9,3.6-4.1,6.9-6.7,10.1
		c-0.1,0.1-0.1,0.1-0.1,0.2c-1.1,1.3-2.4,2.6-3.9,4c-2.2,2-4,3.3-5.2,4c-1.2,0.7-2.2,0.6-2.9-0.1c-0.4-0.4-0.6-1-0.6-1.6
		c0-0.7,0-1.2,0.1-1.6c0.4-3.5,1.9-6.9,4.3-10.4c0.3-0.5,0-0.9-0.8-1.2c-0.8-0.3-1.5-0.5-2.1-0.5c-0.3,0-2.7,2.4-7.1,7.1
		c-1.2,1.3-3.6,3.4-6.9,6.3c-2.1,1.6-3.6,2.4-4.6,2.4c-1,0-1.5-0.9-1.5-2.6c0-0.9,0.6-2.4,1.9-4.3c1.3-2,2.7-3.8,4.4-5.3
		c2-1.8,4.1-3.2,6.4-4.4c2.3-1.2,4.3-1.8,6.1-1.8s3,0.5,3.5,1.4c0.2,0.1,0.3,0.1,0.4,0.1c0,0,0.1-0.2,0.1-0.4c0-0.7-0.5-1.4-1.4-2
		c-0.9-0.6-2-1-3.3-1c-1.3,0-2.6,0.2-3.9,0.5c-1.3,0.3-3.2,1.2-5.4,2.5c-2.3,1.3-4.5,2.9-6.6,4.8c-1.7,1.5-3,3.1-4,4.6
		c-2.8,3.4-6.4,6-10.9,7.9c-1.9,0.8-3.5,1.1-4.9,1.1c-1.3,0-2.2-0.3-2.9-1s-0.9-1.4-0.9-2.1c0-0.7,0.1-1.5,0.4-2.3
		c0.8-2.5,2.4-5,4.9-7.6c2.5-2.6,4.8-4.4,7.1-5.5c1-0.5,1.9-0.8,2.5-0.8c0.8,0,1.1,0.4,1.1,1.2s-0.3,1.6-0.9,2.5
		c-1.5,1.8-3.8,3.6-7,5.3c-1.7,1-3.1,1.5-4.2,1.6c-0.1,0-0.2,0-0.4,0.1c-0.2,0-0.2,0.2-0.2,0.4c0,0.4,0.4,0.6,1.1,0.6
		c1.9-0.1,4.1-0.9,6.8-2.2c2.7-1.3,4.6-2.9,5.8-4.6c0.7-0.8,1.1-1.9,1.1-3.2c0-2.5-1.3-3.7-3.9-3.7c-2.3,0-5.4,1.4-9.3,4.3
		c-3.9,2.9-6.5,5.7-7.7,8.4c-0.6,1.6-0.9,2.9-0.9,4.1c0,1.1,0.3,2.1,0.8,2.9c1.4,2.1,3.8,3.1,7.2,3.1c4,0,8.1-1.8,12.4-5.4
		c0.6-0.5,1.2-1.1,1.8-1.6c0,0.2,0,0.4,0,0.6c0,1,0.3,1.9,0.9,2.7c0.6,0.8,1.4,1.5,2.3,1.9c0.9,0.5,1.7,0.7,2.5,0.7
		c1.7,0,3.5-0.8,5.6-2.5c2.1-1.7,3.9-3.4,5.5-5.2s2.5-2.8,2.6-2.9c-0.9,2.4-1.4,4.7-1.4,6.8c0,0.7,0.1,1.4,0.2,1.9
		c0.6,1.8,1.8,2.7,3.7,2.7c1.9,0,4-0.8,6.2-2.5c1.2-0.9,2.9-2.5,5.2-4.9c1.7-1.8,2.7-3.1,3.2-4c1.2-1.6,3.4-4.7,6.6-9.2
		c0.9,0,2,0.1,3.4,0.4c1.4,0.3,2.2,0.7,2.4,1.3l0.2,0.6c0,0.2-0.3,0.8-0.9,1.7l-0.5,0.7c-0.1,0.2-0.4,0.5-0.7,0.8
		c-4.2,4.3-6.3,7.9-6.3,10.8c0,2.9,1.2,4.4,3.7,4.4c2,0,3.9-0.7,5.6-2c1.8-1.2,3.6-2.9,5.4-4.9c0.7-0.7,1.2-1.4,1.7-2
		c-0.2,1.1-0.4,2.1-0.4,2.9c0,0.1,0,0.3,0,0.4c0,3.5,1.8,5.3,5.4,5.3c1.6,0,3.2-0.6,4.7-1.8s3.3-2.8,5.3-4.8c1.9-2,3.3-3.7,4-4.9
		c0.2-0.6,0.1-0.9-0.4-0.9c-0.2,0-0.3,0.1-0.4,0.2c-1.2,1.7-2.9,3.5-5.1,5.5c-2.2,2-4,3.4-5.4,4.2c-1.9,1.1-3.3,1-4.1-0.3
		c-0.5-0.8-0.7-1.6-0.7-2.5s0-1.7,0.1-2.2C350.4,35.9,350.7,34.8,351.3,33.2z M358.7,17.1c3.6-6.4,7.3-11.1,11.1-14
		c1-0.8,1.8-1.1,2.5-1.1c0.8,0,1.2,0.5,1.2,1.5c0,0.6-0.3,1.4-0.9,2.4c-2.1,4-5.1,8.5-9.2,13.5c-4.1,5.1-7.8,8.7-11.1,11
		C353.7,26.7,355.8,22.3,358.7,17.1z"/>
</g>
</svg>
